<svg width="525" height="113" viewBox="0 0 525 113" fill="none" xmlns="http://www.w3.org/2000/svg">
<path d="M40.088 53.288L37.9215 51.2128L35.9458 53.2756L37.9091 55.3501L40.088 53.288ZM85.88 5.47999L88.0465 7.55514L92.9077 2.47999H85.88V5.47999ZM56.216 5.47999V2.47999H54.937L54.0515 3.4028L56.216 5.47999ZM25.4 37.592H22.4V45.0509L27.5646 39.6692L25.4 37.592ZM25.4 5.47999H28.4V2.47999H25.4V5.47999ZM3.8 5.47999V2.47999H0.8V5.47999H3.8ZM3.8 107H0.8V110H3.8V107ZM25.4 107V110H28.4V107H25.4ZM25.4 69.272L27.5871 67.2185L22.4 61.6941V69.272H25.4ZM60.824 107L58.637 109.053L59.5257 110H60.824V107ZM90.92 107V110H97.8896L93.0989 104.938L90.92 107ZM42.2545 55.3631L88.0465 7.55514L83.7135 3.40484L37.9215 51.2128L42.2545 55.3631ZM85.88 2.47999H56.216V8.47999H85.88V2.47999ZM54.0515 3.4028L23.2355 35.5148L27.5646 39.6692L58.3806 7.55719L54.0515 3.4028ZM28.4 37.592V5.47999H22.4V37.592H28.4ZM25.4 2.47999H3.8V8.47999H25.4V2.47999ZM0.8 5.47999V107H6.8V5.47999H0.8ZM3.8 110H25.4V104H3.8V110ZM28.4 107V69.272H22.4V107H28.4ZM23.213 71.3255L58.637 109.053L63.0111 104.947L27.5871 67.2185L23.213 71.3255ZM60.824 110H90.92V104H60.824V110ZM93.0989 104.938L42.2669 51.2259L37.9091 55.3501L88.7411 109.062L93.0989 104.938ZM120.744 28.952L123.381 27.5216L117.744 28.952H120.744ZM163.08 107L160.443 108.43L161.294 110H163.08V107ZM194.184 107V110H197.184V107H194.184ZM194.184 5.47999H197.184V2.47999H194.184V5.47999ZM172.584 5.47999V2.47999H169.584V5.47999H172.584ZM172.584 80.792L169.945 82.2197L175.584 80.792H172.584ZM131.832 5.47999L134.47 4.05228L133.619 2.47999H131.832V5.47999ZM99.1438 5.47999V2.47999H96.1438V5.47999H99.1438ZM99.1438 107H96.1438V110H99.1438V107ZM120.744 107V110H123.744V107H120.744ZM118.107 30.3824L160.443 108.43L165.717 105.57L123.381 27.5216L118.107 30.3824ZM163.08 110H194.184V104H163.08V110ZM197.184 107V5.47999H191.184V107H197.184ZM194.184 2.47999H172.584V8.47999H194.184V2.47999ZM169.584 5.47999V80.792H175.584V5.47999H169.584ZM175.222 79.3643L134.47 4.05228L129.193 6.90771L169.945 82.2197L175.222 79.3643ZM131.832 2.47999H99.1438V8.47999H131.832V2.47999ZM96.1438 5.47999V107H102.144V5.47999H96.1438ZM99.1438 110H120.744V104H99.1438V110ZM123.744 107V28.952H117.744V107H123.744ZM238.166 5.47999H241.166V2.47999H238.166V5.47999ZM216.566 5.47999V2.47999H213.566V5.47999H216.566ZM219.878 82.808L222.631 81.6173L222.625 81.6034L222.619 81.5896L219.878 82.808ZM229.094 96.632L226.972 98.7533L226.972 98.7533L229.094 96.632ZM242.918 105.848L244.136 103.107L244.122 103.1L244.108 103.094L242.918 105.848ZM276.614 105.848L277.804 108.602L277.818 108.596L277.832 108.589L276.614 105.848ZM299.51 82.808L296.768 81.5896L296.762 81.6034L296.756 81.6173L299.51 82.808ZM302.966 5.47999H305.966V2.47999H302.966V5.47999ZM281.366 5.47999V2.47999H278.366V5.47999H281.366ZM275.03 81.224L277.151 83.3453L277.151 83.3453L275.03 81.224ZM268.118 85.832L269.336 88.5734L269.336 88.5734L268.118 85.832ZM251.27 85.832L250.051 88.5734L250.051 88.5734L251.27 85.832ZM244.502 81.224L246.7 79.1826L246.624 79.1012L246.543 79.0256L244.502 81.224ZM239.894 74.456L242.635 73.2376L242.635 73.2376L239.894 74.456ZM238.166 2.47999H216.566V8.47999H238.166V2.47999ZM213.566 5.47999V65.96H219.566V5.47999H213.566ZM213.566 65.96C213.566 72.346 214.631 78.3906 217.136 84.0264L222.619 81.5896C220.516 76.8574 219.566 71.67 219.566 65.96H213.566ZM217.124 83.9987C219.561 89.6334 222.787 94.5682 226.972 98.7533L231.215 94.5107C227.624 90.9198 224.803 86.6386 222.631 81.6173L217.124 83.9987ZM226.972 98.7533C231.157 102.938 236.092 106.165 241.727 108.602L244.108 103.094C239.087 100.923 234.806 98.1015 231.215 94.5107L226.972 98.7533ZM241.699 108.589C247.335 111.094 253.38 112.16 259.766 112.16V106.16C254.056 106.16 248.868 105.21 244.136 103.107L241.699 108.589ZM259.766 112.16C266.02 112.16 272.049 111.09 277.804 108.602L275.423 103.094C270.522 105.214 265.32 106.16 259.766 106.16V112.16ZM277.832 108.589C283.306 106.156 288.233 102.935 292.415 98.7533L288.172 94.5107C284.578 98.1049 280.289 100.932 275.395 103.107L277.832 108.589ZM292.415 98.7533C296.6 94.5682 299.827 89.6334 302.263 83.9987L296.756 81.6173C294.585 86.6386 291.763 90.9198 288.172 94.5107L292.415 98.7533ZM302.251 84.0264C304.737 78.4339 305.966 72.3995 305.966 65.96H299.966C299.966 71.6165 298.891 76.8141 296.768 81.5896L302.251 84.0264ZM305.966 65.96V5.47999H299.966V65.96H305.966ZM302.966 2.47999H281.366V8.47999H302.966V2.47999ZM278.366 5.47999V65.96H284.366V5.47999H278.366ZM278.366 65.96C278.366 68.603 277.863 71.0631 276.896 73.2376L282.379 75.6744C283.717 72.6649 284.366 69.365 284.366 65.96H278.366ZM276.896 73.2376C275.889 75.504 274.512 77.4993 272.908 79.1027L277.151 83.3453C279.292 81.2047 281.082 78.592 282.379 75.6744L276.896 73.2376ZM272.908 79.1027C271.21 80.8012 269.237 82.0514 266.899 83.0906L269.336 88.5734C272.182 87.3086 274.817 85.6788 277.151 83.3453L272.908 79.1027ZM266.899 83.0906C264.716 84.061 262.254 84.56 259.766 84.56V90.56C263.037 90.56 266.335 89.907 269.336 88.5734L266.899 83.0906ZM259.766 84.56C257.123 84.56 254.663 84.057 252.488 83.0906L250.051 88.5734C253.061 89.911 256.361 90.56 259.766 90.56V84.56ZM252.488 83.0906C250.137 82.0455 248.213 80.8124 246.7 79.1826L242.303 83.2654C244.534 85.6676 247.219 87.3145 250.051 88.5734L252.488 83.0906ZM246.543 79.0256C244.913 77.5123 243.68 75.589 242.635 73.2376L237.152 75.6744C238.411 78.507 240.058 81.1917 242.46 83.4224L246.543 79.0256ZM242.635 73.2376C241.669 71.0631 241.166 68.603 241.166 65.96H235.166C235.166 69.365 235.815 72.6649 237.152 75.6744L242.635 73.2376ZM241.166 65.96V5.47999H235.166V65.96H241.166ZM348.644 5.47999V2.47999H346.513L345.811 4.49163L348.644 5.47999ZM313.22 107L310.387 106.012L308.996 110H313.22V107ZM336.116 107V110H338.251L338.951 107.983L336.116 107ZM343.604 85.4V82.4H341.469L340.769 84.4174L343.604 85.4ZM378.74 85.4L381.575 84.4174L380.875 82.4H378.74V85.4ZM386.228 107L383.393 107.983L384.093 110H386.228V107ZM409.412 107V110H413.642L412.243 106.008L409.412 107ZM373.844 5.47999L376.675 4.48805L375.972 2.47999H373.844V5.47999ZM351.236 63.8L348.403 62.8133L347.015 66.8H351.236V63.8ZM361.316 34.856L364.153 33.8819L361.336 25.6757L358.483 33.8693L361.316 34.856ZM371.252 63.8V66.8H375.454L374.089 62.8259L371.252 63.8ZM345.811 4.49163L310.387 106.012L316.053 107.988L351.477 6.46836L345.811 4.49163ZM313.22 110H336.116V104H313.22V110ZM338.951 107.983L346.439 86.3826L340.769 84.4174L333.281 106.017L338.951 107.983ZM343.604 88.4H378.74V82.4H343.604V88.4ZM375.905 86.3826L383.393 107.983L389.063 106.017L381.575 84.4174L375.905 86.3826ZM386.228 110H409.412V104H386.228V110ZM412.243 106.008L376.675 4.48805L371.013 6.47194L406.581 107.992L412.243 106.008ZM373.844 2.47999H348.644V8.47999H373.844V2.47999ZM354.069 64.7867L364.149 35.8426L358.483 33.8693L348.403 62.8133L354.069 64.7867ZM358.479 35.83L368.415 64.7741L374.089 62.8259L364.153 33.8819L358.479 35.83ZM371.252 60.8H351.236V66.8H371.252V60.8ZM420.328 76.904L423.092 75.7371L423.076 75.6996L423.059 75.6626L420.328 76.904ZM431.56 93.752L433.681 91.6307L433.681 91.6307L431.56 93.752ZM448.408 104.984L449.649 102.253L449.612 102.236L449.575 102.22L448.408 104.984ZM489.592 104.984L488.403 102.23L488.388 102.236L488.373 102.243L489.592 104.984ZM506.44 93.752L508.529 95.9047L508.545 95.8891L508.561 95.8733L506.44 93.752ZM517.816 76.904L520.557 78.1224L520.564 78.1079L520.57 78.0933L517.816 76.904ZM517.816 35.72L520.58 34.5531L520.564 34.5156L520.547 34.4786L517.816 35.72ZM506.44 18.872L508.593 16.7826L508.561 16.7504L508.529 16.7192L506.44 18.872ZM489.592 7.49599L490.833 4.76489L490.796 4.74807L490.759 4.73225L489.592 7.49599ZM448.408 7.49599L447.219 4.74181L447.204 4.74811L447.189 4.75456L448.408 7.49599ZM431.56 18.872L429.439 16.7507L429.423 16.7665L429.407 16.7826L431.56 18.872ZM420.328 35.72L423.069 36.9384L423.076 36.9239L423.082 36.9093L420.328 35.72ZM440.056 44.216L442.78 45.4732L442.8 45.4294L442.819 45.3849L440.056 44.216ZM446.68 34.136L444.559 32.0147L444.559 32.0147L446.68 34.136ZM456.616 27.368L455.447 24.6051L455.403 24.6239L455.359 24.6441L456.616 27.368ZM480.952 27.368L482.209 24.6441L482.165 24.6239L482.121 24.6051L480.952 27.368ZM491.032 34.136L488.911 36.2573L488.911 36.2573L491.032 34.136ZM497.8 44.216L500.563 43.0471L500.544 43.0026L500.524 42.9588L497.8 44.216ZM497.8 68.552L500.524 69.8092L500.544 69.7654L500.563 69.7209L497.8 68.552ZM491.032 78.488L488.911 76.3667L488.911 76.3667L491.032 78.488ZM480.952 85.112L479.783 82.3491L479.739 82.3679L479.695 82.3881L480.952 85.112ZM456.616 85.112L457.873 82.3881L457.829 82.3679L457.785 82.3491L456.616 85.112ZM446.68 78.488L444.559 80.6093L444.559 80.6093L446.68 78.488ZM440.056 68.552L442.819 67.3831L442.8 67.3386L442.78 67.2948L440.056 68.552ZM413.152 56.312C413.152 64.0123 414.512 71.3589 417.597 78.1454L423.059 75.6626C420.384 69.7771 419.152 63.2997 419.152 56.312H413.152ZM417.564 78.0709C420.444 84.8906 424.4 90.8349 429.439 95.8733L433.681 91.6307C429.216 87.1651 425.684 81.8774 423.092 75.7371L417.564 78.0709ZM429.439 95.8733C434.477 100.912 440.421 104.868 447.241 107.748L449.575 102.22C443.434 99.6277 438.147 96.0963 433.681 91.6307L429.439 95.8733ZM447.166 107.715C453.953 110.8 461.3 112.16 469 112.16V106.16C462.012 106.16 455.535 104.928 449.649 102.253L447.166 107.715ZM469 112.16C476.566 112.16 483.901 110.796 490.81 107.725L488.373 102.243C482.323 104.932 475.834 106.16 469 106.16V112.16ZM490.781 107.738C497.447 104.86 503.369 100.913 508.529 95.9047L504.35 91.5993C499.719 96.0949 494.408 99.6364 488.403 102.23L490.781 107.738ZM508.561 95.8733C513.6 90.8346 517.544 84.9031 520.557 78.1224L515.074 75.6856C512.328 81.8649 508.784 87.1654 504.319 91.6307L508.561 95.8733ZM520.57 78.0933C523.472 71.3728 524.992 64.0552 524.992 56.312H518.992C518.992 63.2568 517.632 69.7632 515.062 75.7147L520.57 78.0933ZM524.992 56.312C524.992 48.7044 523.469 41.3961 520.58 34.5531L515.052 36.8869C517.635 43.0039 518.992 49.5196 518.992 56.312H524.992ZM520.547 34.4786C517.535 27.8518 513.602 21.9434 508.593 16.7826L504.287 20.9614C508.782 25.5926 512.337 30.9162 515.085 36.9614L520.547 34.4786ZM508.529 16.7192C503.368 11.7102 497.46 7.77707 490.833 4.76489L488.35 10.2271C494.396 12.9749 499.719 16.5298 504.35 21.0247L508.529 16.7192ZM490.759 4.73225C483.916 1.84298 476.607 0.319996 469 0.319996V6.32C475.792 6.32 482.308 7.67701 488.425 10.2597L490.759 4.73225ZM469 0.319996C461.257 0.319996 453.939 1.83979 447.219 4.74181L449.597 10.2502C455.549 7.6802 462.055 6.32 469 6.32V0.319996ZM447.189 4.75456C440.409 7.76821 434.477 11.712 429.439 16.7507L433.681 20.9933C438.147 16.528 443.447 12.9838 449.626 10.2374L447.189 4.75456ZM429.407 16.7826C424.399 21.9427 420.452 27.8646 417.574 34.5307L423.082 36.9093C425.676 30.9034 429.217 25.5933 433.713 20.9614L429.407 16.7826ZM417.586 34.5016C414.515 41.4113 413.152 48.7458 413.152 56.312H419.152C419.152 49.4782 420.38 42.9887 423.069 36.9384L417.586 34.5016ZM440.608 56.312C440.608 52.3304 441.27 48.7445 442.78 45.4732L437.332 42.9588C435.386 47.1755 434.608 51.6536 434.608 56.312H440.608ZM442.819 45.3849C444.281 41.9294 446.242 38.8168 448.801 36.2573L444.559 32.0147C441.358 35.2152 438.999 39.0146 437.293 43.0471L442.819 45.3849ZM448.801 36.2573C451.387 33.6712 454.389 31.6998 457.873 30.0919L455.359 24.6441C451.355 26.4922 447.732 28.8408 444.559 32.0147L448.801 36.2573ZM457.785 30.1309C461.155 28.705 464.933 27.92 468.856 27.92V21.92C464.139 21.92 459.565 22.863 455.447 24.6051L457.785 30.1309ZM468.856 27.92C472.764 27.92 476.4 28.6995 479.783 30.1309L482.121 24.6051C478.016 22.8685 473.587 21.92 468.856 21.92V27.92ZM479.695 30.0919C483.22 31.7187 486.35 33.6964 488.911 36.2573L493.153 32.0147C489.954 28.8156 486.172 26.4733 482.209 24.6441L479.695 30.0919ZM488.911 36.2573C491.471 38.8182 493.449 41.9483 495.076 45.4732L500.524 42.9588C498.695 38.9957 496.352 35.2137 493.153 32.0147L488.911 36.2573ZM495.037 45.3849C496.468 48.7682 497.248 52.4034 497.248 56.312H503.248C503.248 51.5806 502.299 47.1518 500.563 43.0471L495.037 45.3849ZM497.248 56.312C497.248 60.2347 496.463 64.0128 495.037 67.3831L500.563 69.7209C502.305 65.6032 503.248 61.0293 503.248 56.312H497.248ZM495.076 67.2948C493.468 70.7788 491.497 73.7806 488.911 76.3667L493.153 80.6093C496.327 77.4354 498.676 73.8132 500.524 69.8092L495.076 67.2948ZM488.911 76.3667C486.351 78.9261 483.239 80.8871 479.783 82.3491L482.121 87.8749C486.153 86.1689 489.953 83.8099 493.153 80.6093L488.911 76.3667ZM479.695 82.3881C476.423 83.898 472.837 84.56 468.856 84.56V90.56C473.514 90.56 477.992 89.782 482.209 87.8359L479.695 82.3881ZM468.856 84.56C464.859 84.56 461.133 83.8929 457.873 82.3881L455.359 87.8359C459.586 89.7871 464.213 90.56 468.856 90.56V84.56ZM457.785 82.3491C454.369 80.9038 451.387 78.9528 448.801 76.3667L444.559 80.6093C447.732 83.7832 451.375 86.1522 455.447 87.8749L457.785 82.3491ZM448.801 76.3667C446.215 73.7806 444.264 70.7993 442.819 67.3831L437.293 69.7209C439.016 73.7927 441.385 77.4354 444.559 80.6093L448.801 76.3667ZM442.78 67.2948C441.275 64.0345 440.608 60.3087 440.608 56.312H434.608C434.608 60.9553 435.381 65.5815 437.332 69.8092L442.78 67.2948Z" fill="#F452AA"/>
</svg>
