<?xml version="1.0" encoding="UTF-8" standalone="no"?>
<svg
   xmlns:dc="http://purl.org/dc/elements/1.1/"
   xmlns:cc="http://creativecommons.org/ns#"
   xmlns:rdf="http://www.w3.org/1999/02/22-rdf-syntax-ns#"
   xmlns:svg="http://www.w3.org/2000/svg"
   xmlns="http://www.w3.org/2000/svg"
   xmlns:sodipodi="http://sodipodi.sourceforge.net/DTD/sodipodi-0.dtd"
   xmlns:inkscape="http://www.inkscape.org/namespaces/inkscape"
   inkscape:export-ydpi="384"
   inkscape:export-xdpi="384"
   inkscape:export-filename="C:\Users\John\Desktop\new_knuao_square.png"
   id="SVGRoot"
   version="1.1"
   viewBox="0 0 1024.0 1024.0"
   height="1024.0px"
   width="1024.0px"
   inkscape:version="1.0 (4035a4fb49, 2020-05-01)"
   sodipodi:docname="new_knuao_square_outline.svg">
  <title
     id="title95">KNUAO</title>
  <defs
     id="defs37" />
  <sodipodi:namedview
     id="base"
     pagecolor="#ffffff"
     bordercolor="#666666"
     borderopacity="1.0"
     inkscape:pageopacity="0.0"
     inkscape:pageshadow="2"
     inkscape:zoom="0.9899495"
     inkscape:cx="298.29499"
     inkscape:cy="504.66951"
     inkscape:document-units="px"
     inkscape:current-layer="g1214"
     inkscape:document-rotation="0"
     showgrid="false"
     inkscape:window-width="1920"
     inkscape:window-height="1017"
     inkscape:window-x="-8"
     inkscape:window-y="-8"
     inkscape:window-maximized="1"
     showguides="true">
    <inkscape:grid
       id="grid46"
       type="xygrid" />
  </sodipodi:namedview>
  <metadata
     id="metadata40">
    <rdf:RDF>
      <cc:Work
         rdf:about="">
        <dc:format>image/svg+xml</dc:format>
        <dc:type
           rdf:resource="http://purl.org/dc/dcmitype/StillImage" />
        <dc:title>KNUAO</dc:title>
      </cc:Work>
    </rdf:RDF>
  </metadata>
  <g
     style="display:none"
     inkscape:label="background"
     id="layer2"
     inkscape:groupmode="layer">
    <rect
       y="-320"
       x="-160"
       height="1760"
       width="1920"
       id="rect36"
       style="fill:#ffffff" />
  </g>
  <g
     inkscape:label="레이어 1"
     inkscape:groupmode="layer"
     id="layer1">
    <g
       id="g1214"
       style="display:inline;stroke:#000000;stroke-opacity:1;stroke-width:0.45798134;stroke-miterlimit:4;stroke-dasharray:none;fill:none"
       transform="matrix(5.4587377,0,0,5.4587377,35.375629,-73.259688)">
      <g
         style="font-style:normal;font-weight:normal;font-size:50.8px;line-height:1.25;font-family:sans-serif;letter-spacing:-7.14375px;fill:none;fill-opacity:1;stroke:#000000;stroke-width:0.457981;stroke-miterlimit:4;stroke-dasharray:none;stroke-opacity:1"
         id="text68"
         aria-label="KN">
        <path
           id="path858"
           style="font-style:normal;font-variant:normal;font-weight:normal;font-stretch:normal;font-size:50.8px;font-family:'Arya W00 Single';-inkscape-font-specification:'Arya W00 Single';fill:none;stroke:#000000;stroke-width:0.457981;stroke-miterlimit:4;stroke-dasharray:none;stroke-opacity:1"
           d="M 19.204519,110.69743 35.358918,93.831829 H 24.894119 l -10.8712,11.328401 V 93.831829 H 6.4029188 v 35.814001 h 7.6200002 v -13.3096 l 12.4968,13.3096 h 10.617199 z" />
        <path
           id="path860"
           style="font-style:normal;font-variant:normal;font-weight:normal;font-stretch:normal;font-size:50.8px;font-family:'Arya W00 Single';-inkscape-font-specification:'Arya W00 Single';fill:none;stroke:#000000;stroke-width:0.457981;stroke-miterlimit:4;stroke-dasharray:none;stroke-opacity:1"
           d="m 40.514324,102.11223 14.9352,27.5336 h 10.9728 V 93.831829 h -7.62 v 26.568401 l -14.3764,-26.568401 h -11.5316 v 35.814001 h 7.62 z" />
      </g>
      <g
         style="font-style:normal;font-weight:normal;font-size:50.2675px;line-height:1.25;font-family:sans-serif;letter-spacing:-4.97438px;fill:none;fill-opacity:1;stroke:#000000;stroke-width:0.457981;stroke-miterlimit:4;stroke-dasharray:none;stroke-opacity:1"
         id="text76"
         transform="scale(1.0105894,0.98952156)"
         aria-label="U">
        <path
           id="path855"
           style="font-style:normal;font-variant:normal;font-weight:normal;font-stretch:normal;font-size:50.2675px;font-family:'Arya W00 Single';-inkscape-font-specification:'Arya W00 Single';fill:none;stroke:#000000;stroke-width:0.457981;stroke-miterlimit:4;stroke-dasharray:none;stroke-opacity:1"
           d="M 65.721595,94.825648 H 58.18147 V 115.938 c 0,2.11123 0.351873,4.07167 1.156153,5.8813 0.80428,1.85989 1.859897,3.46845 3.21712,4.82568 1.357222,1.35722 2.965782,2.41284 4.82568,3.21712 1.80963,0.80428 3.770063,1.15615 5.881298,1.15615 2.060967,0 4.0214,-0.35187 5.881297,-1.15615 1.80963,-0.80428 3.41819,-1.8599 4.775413,-3.21712 1.357223,-1.35723 2.41284,-2.96579 3.21712,-4.82568 0.80428,-1.80963 1.20642,-3.77007 1.20642,-5.8813 V 94.825648 H 80.801846 V 115.938 c 0,1.05562 -0.20107,2.06097 -0.60321,2.96578 -0.40214,0.90482 -0.955083,1.7091 -1.60856,2.36257 -0.703745,0.70375 -1.508025,1.20642 -2.41284,1.60856 -0.904815,0.40214 -1.910165,0.60321 -2.915515,0.60321 -1.055618,0 -2.060968,-0.20107 -2.965783,-0.60321 -0.904815,-0.40214 -1.709095,-0.90481 -2.362573,-1.60856 -0.703745,-0.65347 -1.20642,-1.45775 -1.60856,-2.36257 -0.40214,-0.90481 -0.60321,-1.91016 -0.60321,-2.96578 z" />
      </g>
      <g
         style="font-style:normal;font-weight:normal;font-size:50.8px;line-height:1.25;font-family:sans-serif;fill:none;fill-opacity:1;stroke:#000000;stroke-width:0.457981;stroke-miterlimit:4;stroke-dasharray:none;stroke-opacity:1"
         id="text117"
         aria-label="O">
        <path
           id="path849"
           style="font-style:normal;font-variant:normal;font-weight:normal;font-stretch:normal;font-size:50.8px;font-family:'Arya W00 Single';-inkscape-font-specification:'Arya W00 Single';fill:none;fill-opacity:1;stroke:#000000;stroke-width:0.457981;stroke-miterlimit:4;stroke-dasharray:none;stroke-opacity:1"
           d="m 132.12938,96.427177 c 0,2.5908 0.4572,5.029203 1.4732,7.264403 0.9652,2.286 2.286,4.2672 3.9624,5.9436 1.6764,1.6764 3.6576,2.9972 5.9436,3.9624 2.2352,1.016 4.6736,1.4732 7.2644,1.4732 2.54,0 4.9784,-0.4572 7.2644,-1.4732 2.2352,-0.9652 4.2164,-2.286 5.9436,-3.9624 1.6764,-1.6764 2.9972,-3.6576 4.0132,-5.9436 0.9652,-2.2352 1.4732,-4.673603 1.4732,-7.264403 0,-2.54 -0.508,-4.9784 -1.4732,-7.2644 -1.016,-2.2352 -2.3368,-4.2164 -4.0132,-5.9436 -1.7272,-1.6764 -3.7084,-2.9972 -5.9436,-4.0132 -2.286,-0.9652 -4.7244,-1.4732 -7.2644,-1.4732 -2.5908,0 -5.0292,0.508 -7.2644,1.4732 -2.286,1.016 -4.2672,2.3368 -5.9436,4.0132 -1.6764,1.7272 -2.9972,3.7084 -3.9624,5.9436 -1.016,2.286 -1.4732,4.7244 -1.4732,7.2644 z m 7.5692,0 c 0,-1.524 0.254,-2.9464 0.8636,-4.2672 0.5588,-1.3208 1.3208,-2.54 2.3368,-3.556 1.016,-1.016 2.1844,-1.778 3.5052,-2.3876 1.3208,-0.5588 2.794,-0.8636 4.318,-0.8636 1.524,0 2.9464,0.3048 4.2672,0.8636 1.3208,0.6096 2.54,1.3716 3.556,2.3876 1.016,1.016 1.778,2.2352 2.3876,3.556 0.5588,1.3208 0.8636,2.7432 0.8636,4.2672 0,1.524 -0.3048,2.9972 -0.8636,4.318003 -0.6096,1.3208 -1.3716,2.4892 -2.3876,3.5052 -1.016,1.016 -2.2352,1.778 -3.556,2.3368 -1.3208,0.6096 -2.7432,0.8636 -4.2672,0.8636 -1.524,0 -2.9972,-0.254 -4.318,-0.8636 -1.3208,-0.5588 -2.4892,-1.3208 -3.5052,-2.3368 -1.016,-1.016 -1.778,-2.1844 -2.3368,-3.5052 -0.6096,-1.320803 -0.8636,-2.794003 -0.8636,-4.318003 z" />
      </g>
      <g
         style="font-style:normal;font-weight:normal;font-size:54.2712px;line-height:1.25;font-family:sans-serif;letter-spacing:-5.3706px;display:inline;fill:none;fill-opacity:1;stroke:#000000;stroke-width:0.457981;stroke-miterlimit:4;stroke-dasharray:none;stroke-opacity:1"
         id="text76-3"
         transform="scale(1.067724,0.93657161)"
         aria-label="A">
        <path
           id="path852"
           style="font-style:normal;font-variant:normal;font-weight:normal;font-stretch:normal;font-size:54.2712px;font-family:'Arya W00 Single';-inkscape-font-specification:'Arya W00 Single';fill:none;stroke:#000000;stroke-width:0.457981;stroke-miterlimit:4;stroke-dasharray:none;stroke-opacity:1"
           d="M 104.22675,99.013112 90.876039,137.27431 h 8.62912 l 2.822101,-8.14068 h 13.24217 l 2.82211,8.14068 h 8.73766 L 113.72421,99.013112 Z m 0.97689,21.979838 3.79898,-10.90851 3.74471,10.90851 z" />
      </g>
      <rect
         style="fill:none;fill-opacity:1;stroke:#000000;stroke-width:0.45798134;stroke-opacity:1;stroke-miterlimit:4;stroke-dasharray:none"
         id="rect1163"
         width="8.7312593"
         height="2.6458282"
         x="64.293747"
         y="127" />
    </g>
  </g>
</svg>
